<svg width="144" height="50" viewBox="0 0 144 50" fill="none" xmlns="http://www.w3.org/2000/svg">
<path d="M26.061 39.2654C28.7865 33.4557 26.4907 26.4364 20.9331 23.5872C15.3755 20.738 8.66065 23.138 5.93508 28.9476C3.20951 34.7573 5.50533 41.7766 11.0629 44.6258C16.6206 47.475 23.3354 45.075 26.061 39.2654Z" fill="#D2D7FA"/>
<path d="M8.4585 20.3263L9.44167 20.509C9.51299 20.1251 9.35437 19.7348 9.03547 19.5095C8.71658 19.2843 8.29574 19.2652 7.95777 19.4607L8.4585 20.3263ZM14.9707 2.01803C15.5217 2.0565 15.9995 1.64106 16.0379 1.09012C16.0764 0.539176 15.661 0.0613599 15.11 0.0228873L14.9707 2.01803ZM9.90777 16.0404L10.5187 15.2488L10.5187 15.2488L9.90777 16.0404ZM11.6106 25.0071L11.4166 25.9881L11.4201 25.9887L11.6106 25.0071ZM16.0116 24.4983C16.3889 24.095 16.3677 23.4621 15.9643 23.0849C15.561 22.7077 14.9281 22.7288 14.5509 23.1322L16.0116 24.4983ZM26.9585 31.5871C26.9585 38.2146 21.5859 43.5871 14.9585 43.5871V45.5871C22.6905 45.5871 28.9585 39.3191 28.9585 31.5871H26.9585ZM14.9585 43.5871C8.33108 43.5871 2.9585 38.2146 2.9585 31.5871H0.958496C0.958496 39.3191 7.22651 45.5871 14.9585 45.5871V43.5871ZM2.9585 31.5871C2.9585 27.1467 5.3698 23.2683 8.95922 21.1919L7.95777 19.4607C3.77577 21.8799 0.958496 26.4039 0.958496 31.5871H2.9585ZM7.396 8.71188C7.396 4.78326 10.9234 1.73541 14.9707 2.01803L15.11 0.0228873C10.0323 -0.331693 5.396 3.50108 5.396 8.71188H7.396ZM19.4497 21.8284C23.2507 23.7875 26.9585 26.8646 26.9585 31.5871H28.9585C28.9585 25.6576 24.2913 22.0738 20.3659 20.0506L19.4497 21.8284ZM10.5187 15.2488C9.61177 14.5488 8.87862 13.9606 8.3342 13.054C7.79911 12.163 7.396 10.8697 7.396 8.71188H5.396C5.396 11.1238 5.84881 12.8001 6.61962 14.0837C7.38111 15.3517 8.40385 16.1429 9.2968 16.8321L10.5187 15.2488ZM9.2968 16.8321C10.8364 18.0203 12.4679 18.7874 14.1463 19.495C15.8462 20.2116 17.5636 20.8563 19.4497 21.8284L20.3659 20.0506C18.3888 19.0316 16.5404 18.3338 14.9232 17.652C13.2847 16.9613 11.8477 16.2744 10.5187 15.2488L9.2968 16.8321ZM7.47532 20.1437C7.3251 20.9523 7.33663 22.1875 7.87235 23.3455C8.43373 24.559 9.54315 25.6175 11.4166 25.988L11.8047 24.0261C10.5748 23.7828 9.98696 23.1531 9.68753 22.5058C9.36243 21.803 9.34956 21.0048 9.44167 20.509L7.47532 20.1437ZM14.5509 23.1322C13.8708 23.8594 12.8464 24.2282 11.8011 24.0254L11.4201 25.9887C13.1691 26.3282 14.8811 25.7072 16.0116 24.4983L14.5509 23.1322Z" fill="black"/>
<path d="M13.8452 31.1904C13.8452 30.5918 13.3599 30.1064 12.7612 30.1064C12.1626 30.1064 11.6772 30.5918 11.6772 31.1904" stroke="black" stroke-linecap="round"/>
<path d="M9.75146 31.1904C9.75146 30.5918 9.26615 30.1064 8.66748 30.1064C8.06881 30.1064 7.5835 30.5918 7.5835 31.1904" stroke="black" stroke-linecap="round"/>
<path d="M9.75146 32.542C9.75146 33.1407 10.2368 33.626 10.8354 33.626C11.4341 33.626 11.9194 33.1407 11.9194 32.542" stroke="black" stroke-linecap="round"/>
<path d="M19.5835 26.1494C19.0312 26.1494 18.5835 26.5971 18.5835 27.1494C18.5835 27.7017 19.0312 28.1494 19.5835 28.1494L19.5835 26.1494ZM32.771 28.1494C33.3233 28.1494 33.771 27.7017 33.771 27.1494C33.771 26.5971 33.3233 26.1494 32.771 26.1494L32.771 28.1494ZM19.5835 28.1494L32.771 28.1494L32.771 26.1494L19.5835 26.1494L19.5835 28.1494Z" fill="black"/>
<path d="M22.9585 31.8037C22.4062 31.8037 21.9585 32.2514 21.9585 32.8037C21.9585 33.356 22.4062 33.8037 22.9585 33.8037L22.9585 31.8037ZM36.146 33.8037C36.6983 33.8037 37.146 33.356 37.146 32.8037C37.146 32.2514 36.6983 31.8037 36.146 31.8037L36.146 33.8037ZM22.9585 33.8037L36.146 33.8037L36.146 31.8037L22.9585 31.8037L22.9585 33.8037Z" fill="black"/>
<path d="M17.521 37.458C16.9687 37.458 16.521 37.9057 16.521 38.458C16.521 39.0103 16.9687 39.458 17.521 39.458L17.521 37.458ZM30.7085 39.458C31.2608 39.458 31.7085 39.0103 31.7085 38.458C31.7085 37.9057 31.2608 37.458 30.7085 37.458L30.7085 39.458ZM17.521 39.458L30.7085 39.458L30.7085 37.458L17.521 37.458L17.521 39.458Z" fill="black"/>
<path d="M49.7012 40.4382C51.4779 40.4382 52.8689 40.0438 53.8742 39.2552C54.8882 38.4665 55.3952 37.3788 55.3952 35.9922C55.3952 35.2642 55.2436 34.6488 54.9402 34.1462C54.6456 33.6435 54.1516 33.2102 53.4582 32.8462C52.7649 32.4735 51.8289 32.1355 50.6502 31.8322C49.5496 31.5548 48.7176 31.3165 48.1542 31.1172C47.5996 30.9092 47.2226 30.7012 47.0232 30.4932C46.8239 30.2765 46.7242 30.0122 46.7242 29.7002C46.7242 29.1628 46.9799 28.7425 47.4912 28.4392C48.0026 28.1272 48.6699 27.9885 49.4932 28.0232C50.3512 28.0578 51.0489 28.2745 51.5862 28.6732C51.9804 28.9593 52.2557 29.32 52.412 29.7553C52.5079 30.0223 52.7673 30.2169 53.0464 30.166L54.8521 29.8369C55.1131 29.7894 55.2947 29.5452 55.2353 29.2867C54.9979 28.2539 54.4142 27.4124 53.4842 26.7622C52.4182 26.0082 51.0792 25.6312 49.4672 25.6312C47.8206 25.6312 46.4989 26.0168 45.5022 26.7882C44.5056 27.5508 44.0072 28.5692 44.0072 29.8432C44.0072 30.5278 44.1546 31.1128 44.4492 31.5982C44.7526 32.0748 45.2552 32.4908 45.9572 32.8462C46.6679 33.2015 47.6256 33.5395 48.8302 33.8602C49.9309 34.1548 50.7499 34.4018 51.2872 34.6012C51.8246 34.8005 52.1756 35.0128 52.3402 35.2382C52.5136 35.4548 52.6002 35.7408 52.6002 36.0962C52.6002 36.7028 52.3576 37.1795 51.8722 37.5262C51.3956 37.8728 50.7326 38.0462 49.8832 38.0462C48.9472 38.0462 48.1629 37.8382 47.5302 37.4222C47.0367 37.0931 46.6841 36.6637 46.4725 36.134C46.3756 35.8917 46.1352 35.7239 45.8772 35.7636L44.0576 36.0442C43.7803 36.087 43.5901 36.3503 43.6627 36.6213C43.9661 37.7521 44.5879 38.6474 45.5282 39.3072C46.6029 40.0612 47.9939 40.4382 49.7012 40.4382Z" fill="black"/>
<path d="M59.5587 39.5612C59.5587 39.8373 59.7826 40.0612 60.0587 40.0612H61.8147C62.0908 40.0612 62.3147 39.8373 62.3147 39.5612V32.7552C62.3147 31.6458 62.475 30.7618 62.7957 30.1032C63.125 29.4358 63.5584 28.9548 64.0957 28.6602C64.633 28.3655 65.2267 28.2182 65.8767 28.2182C66.622 28.2182 67.2287 28.3698 67.6967 28.6732C68.1647 28.9765 68.5244 29.3752 68.7757 29.8692C69.027 30.3632 69.196 30.9005 69.2827 31.4812C69.378 32.0532 69.4257 32.6122 69.4257 33.1582V39.5612C69.4257 39.8373 69.6496 40.0612 69.9257 40.0612H71.6817C71.9578 40.0612 72.1817 39.8373 72.1817 39.5612V32.2612C72.1817 31.8278 72.1427 31.3252 72.0647 30.7532C71.9867 30.1812 71.8394 29.5962 71.6227 28.9982C71.406 28.4002 71.0897 27.8498 70.6737 27.3472C70.2664 26.8358 69.7334 26.4242 69.0747 26.1122C68.416 25.8002 67.6014 25.6442 66.6307 25.6442C65.6167 25.6442 64.7154 25.8262 63.9267 26.1902C63.5428 26.3693 63.1914 26.5821 62.8726 26.8284C62.5472 27.0798 61.9897 26.867 61.9897 26.4558V26.4558C61.9897 26.2158 61.7951 26.0212 61.5551 26.0212H60.0587C59.7826 26.0212 59.5587 26.245 59.5587 26.5212V39.5612Z" fill="black"/>
<path d="M80.8328 40.4512C82.4622 40.4512 83.7993 40.0209 84.8442 39.1603C85.2135 38.8562 85.8898 39.0934 85.8898 39.5718V39.5718C85.8898 39.8421 86.1089 40.0612 86.3792 40.0612H87.7948C88.0709 40.0612 88.2948 39.8373 88.2948 39.5612V31.4162C88.2948 30.8268 88.2688 30.2765 88.2168 29.7652C88.1648 29.2538 88.0261 28.7685 87.8008 28.3092C87.3675 27.3818 86.6828 26.7058 85.7468 26.2812C84.8195 25.8478 83.7275 25.6312 82.4708 25.6312C80.8501 25.6312 79.5501 25.9865 78.5708 26.6972C77.7206 27.3141 77.1121 28.1172 76.7453 29.1064C76.6509 29.3607 76.8016 29.6338 77.0609 29.7136L78.6534 30.2036C78.9167 30.2846 79.1919 30.1348 79.3084 29.8852C79.5619 29.342 79.9314 28.9337 80.4168 28.6602C81.0321 28.3135 81.7081 28.1402 82.4448 28.1402C83.5368 28.1402 84.3255 28.3742 84.8108 28.8422C85.2242 29.2265 85.4798 29.79 85.5776 30.5324C85.6113 30.7887 85.4206 31.0138 85.1646 31.0495C84.1777 31.1869 83.2105 31.3307 82.2628 31.4812C81.1708 31.6458 80.2175 31.8452 79.4028 32.0792C78.3195 32.4258 77.4961 32.9415 76.9328 33.6262C76.3695 34.3108 76.0878 35.1818 76.0878 36.2392C76.0878 37.0018 76.2655 37.7038 76.6208 38.3452C76.9848 38.9778 77.5178 39.4892 78.2198 39.8792C78.9305 40.2605 79.8015 40.4512 80.8328 40.4512ZM81.3138 38.2282C80.4471 38.2282 79.8058 38.0288 79.3898 37.6302C78.9825 37.2315 78.7788 36.7592 78.7788 36.2132C78.7788 35.6585 78.9608 35.2208 79.3248 34.9002C79.6975 34.5795 80.1611 34.3238 80.7158 34.1332C81.3051 33.9598 81.9985 33.8082 82.7958 33.6782C83.4488 33.5728 84.1844 33.459 85.0024 33.3366C85.3095 33.2906 85.5831 33.5334 85.5637 33.8433C85.5536 34.0062 85.5409 34.1765 85.5258 34.3542C85.4911 34.7615 85.4175 35.1255 85.3048 35.4462C85.2008 35.9055 84.9798 36.3475 84.6418 36.7722C84.3125 37.1968 83.8661 37.5478 83.3028 37.8252C82.7481 38.0938 82.0851 38.2282 81.3138 38.2282Z" fill="black"/>
<path d="M92.9575 45.8012C92.9575 46.0773 93.1814 46.3012 93.4575 46.3012H95.1875C95.4637 46.3012 95.6875 46.0773 95.6875 45.8012V40.1915C95.6875 39.7593 96.2184 39.5108 96.5952 39.7226C96.8463 39.8638 97.1115 39.9854 97.3905 40.0872C98.0405 40.3298 98.7642 40.4512 99.5615 40.4512C100.87 40.4512 101.997 40.1262 102.942 39.4762C103.895 38.8175 104.627 37.9292 105.139 36.8112C105.659 35.6932 105.919 34.4322 105.919 33.0282C105.919 31.6155 105.659 30.3545 105.139 29.2452C104.619 28.1272 103.878 27.2475 102.916 26.6062C101.962 25.9562 100.827 25.6312 99.5095 25.6312C98.6429 25.6312 97.8629 25.7785 97.1695 26.0732C96.7647 26.2402 96.3923 26.4471 96.0524 26.6939C95.7883 26.8857 95.3755 26.7107 95.3755 26.3842V26.3842C95.3755 26.1837 95.213 26.0212 95.0125 26.0212H93.4575C93.1814 26.0212 92.9575 26.245 92.9575 26.5212V45.8012ZM99.1845 37.9942C97.8499 37.9942 96.8792 37.5305 96.2725 36.6032C95.6745 35.6758 95.3755 34.4842 95.3755 33.0282C95.3755 31.5722 95.6745 30.3848 96.2725 29.4662C96.8705 28.5475 97.8109 28.0882 99.0935 28.0882C99.9949 28.0882 100.736 28.3092 101.317 28.7512C101.897 29.1932 102.326 29.7868 102.604 30.5322C102.89 31.2775 103.033 32.1095 103.033 33.0282C103.033 33.9555 102.894 34.7962 102.617 35.5502C102.339 36.2955 101.915 36.8892 101.343 37.3312C100.779 37.7732 100.06 37.9942 99.1845 37.9942Z" fill="black"/>
<path d="M110.349 39.5612C110.349 39.8373 110.573 40.0612 110.849 40.0612H112.566C112.842 40.0612 113.066 39.8373 113.066 39.5612V21.4512C113.066 21.175 112.842 20.9512 112.566 20.9512H110.849C110.573 20.9512 110.349 21.175 110.349 21.4512V39.5612Z" fill="black"/>
<path d="M124.497 40.4512C125.857 40.4512 127.092 40.1088 128.202 39.4242C129.159 38.8256 129.907 38.0172 130.445 36.9988C130.583 36.7367 130.439 36.4213 130.156 36.3317L128.435 35.7858C128.197 35.7103 127.942 35.8238 127.815 36.0387C127.086 37.273 125.936 37.8902 124.367 37.8902C123.188 37.8902 122.261 37.5348 121.585 36.8242C121.006 36.2155 120.633 35.3905 120.468 34.3495C120.422 34.0599 120.654 33.8082 120.947 33.8082H130.394C130.659 33.8082 130.88 33.6012 130.886 33.3361C130.922 31.8536 130.716 30.5593 130.269 29.4532C129.775 28.2312 129.025 27.2908 128.02 26.6322C127.014 25.9648 125.797 25.6312 124.367 25.6312C122.997 25.6312 121.797 25.9388 120.766 26.5542C119.734 27.1695 118.928 28.0405 118.348 29.1672C117.776 30.2938 117.49 31.6242 117.49 33.1582C117.49 34.6055 117.78 35.8795 118.361 36.9802C118.95 38.0722 119.769 38.9258 120.818 39.5412C121.875 40.1478 123.101 40.4512 124.497 40.4512ZM124.471 28.0362C126.426 28.0362 127.602 29.0684 127.999 31.1329C128.056 31.4267 127.822 31.6892 127.523 31.6892H121.045C120.74 31.6892 120.504 31.4178 120.574 31.1209C120.787 30.2088 121.171 29.4925 121.728 28.9722C122.395 28.3482 123.309 28.0362 124.471 28.0362Z" fill="black"/>
<path d="M142.713 40.1343C142.949 40.0957 143.117 39.8892 143.117 39.6505V38.3413C143.117 38.0354 142.845 37.8023 142.541 37.8346C141.859 37.9069 141.25 37.9124 140.712 37.8512C140.036 37.7645 139.542 37.4568 139.23 36.9282C139.066 36.6422 138.975 36.2912 138.957 35.8752C138.949 35.4592 138.944 34.9695 138.944 34.4062V28.7052C138.944 28.429 139.168 28.2052 139.444 28.2052H142.617C142.894 28.2052 143.117 27.9813 143.117 27.7052V26.5212C143.117 26.245 142.894 26.0212 142.617 26.0212H139.444C139.168 26.0212 138.944 25.7973 138.944 25.5212V22.6212C138.944 22.345 138.721 22.1212 138.444 22.1212H136.714C136.438 22.1212 136.214 22.345 136.214 22.6212V25.5212C136.214 25.7973 135.991 26.0212 135.714 26.0212H134.023C133.747 26.0212 133.523 26.245 133.523 26.5212V27.7052C133.523 27.9813 133.747 28.2052 134.023 28.2052H135.714C135.991 28.2052 136.214 28.429 136.214 28.7052V34.5362C136.214 35.2988 136.223 35.9835 136.24 36.5902C136.266 37.1882 136.431 37.7775 136.734 38.3582C137.081 39.0082 137.588 39.4848 138.255 39.7882C138.923 40.0915 139.681 40.2562 140.53 40.2822C141.249 40.3042 141.976 40.2549 142.713 40.1343Z" fill="black"/>
</svg>
